<svg xmlns="http://www.w3.org/2000/svg" width="23" height="23" viewBox="0 0 23 23">
  <defs>
    <style>
      .cls-1 {
        fill: #45413e;
        fill-rule: evenodd;
        opacity: 0.5;
      }
    </style>
  </defs>
  <path id="Profile_User_Outline._Attribute_as_Situ_Herrera_from_Flaticon.com" data-name="Profile User Outline. Attribute as Situ Herrera from Flaticon.com" class="cls-1" d="M1079.5,40.812c3.57,0,6.47-3.547,6.47-7.906S1083.07,25,1079.5,25a5.921,5.921,0,0,0-4.63,2.376,8.837,8.837,0,0,0-1.84,5.531C1073.03,37.265,1075.93,40.812,1079.5,40.812Zm0-14.374c2.77,0,5.03,2.9,5.03,6.469s-2.26,6.469-5.03,6.469-5.03-2.9-5.03-6.469S1076.73,26.438,1079.5,26.438Zm5.03,12.937a0.719,0.719,0,1,0,0,1.437,5.033,5.033,0,0,1,5.03,5.032,0.719,0.719,0,0,1-.72.719h-18.68a0.719,0.719,0,0,1-.72-0.719,5.039,5.039,0,0,1,5.03-5.032,0.719,0.719,0,1,0,0-1.437,6.475,6.475,0,0,0-6.47,6.469A2.161,2.161,0,0,0,1070.16,48h18.68a2.161,2.161,0,0,0,2.16-2.157A6.475,6.475,0,0,0,1084.53,39.375Z" transform="translate(-1068 -25)"/>
</svg>
