<svg xmlns="http://www.w3.org/2000/svg" width="25" height="22" viewBox="0 0 25 22">
  <defs>
    <style>
      .cls-1 {
        fill: #45413e;
        fill-rule: evenodd;
        opacity: 0.5;
      }
    </style>
  </defs>
  <path id="Heart_Outline_Rounded_Shape._Attribute_as_Freepik_from_Flaticon.com" data-name="Heart Outline Rounded Shape. Attribute as Freepik from Flaticon.com" class="cls-1" d="M1145.29,25a6.513,6.513,0,0,0-4.29,1.637,1.663,1.663,0,0,1-3,0A6.513,6.513,0,0,0,1133.71,25a6.891,6.891,0,0,0-6.71,7.045,8.543,8.543,0,0,0,1.88,5.086l6,7.687a5.154,5.154,0,0,0,8.27.2l6.76-7.882a8.246,8.246,0,0,0,2.09-5.091A6.891,6.891,0,0,0,1145.29,25Zm3.39,11.021-6.73,7.857a3.594,3.594,0,0,1-5.82-.14l-5.98-7.66a6.94,6.94,0,0,1-1.53-4.033,5.225,5.225,0,0,1,5.09-5.343,4.939,4.939,0,0,1,3.25,1.24,3.075,3.075,0,0,0,5.08,0,4.944,4.944,0,0,1,3.25-1.24,5.225,5.225,0,0,1,5.09,5.342A6.492,6.492,0,0,1,1148.68,36.021Z" transform="translate(-1127 -25)"/>
</svg>
